HIERARCHY
ROOT Hips
{
	OFFSET -0.001795 -0.223333 0.028219
	CHANNELS 6 Xposition Yposition Zposition Zrotation Yrotation Xrotation 
	JOINT LeftUpLeg
	{
		OFFSET 0.069520 -0.091406 -0.006815
		CHANNELS 3 Zrotation Yrotation Xrotation
		JOINT LeftLeg
		{
			OFFSET 0.034277 -0.375199 -0.004496
			CHANNELS 3 Zrotation Yrotation Xrotation
			JOINT LeftFoot
			{
				OFFSET -0.013596 -0.397961 -0.043693
				CHANNELS 3 Zrotation Yrotation Xrotation
				JOINT LeftToe
				{
					OFFSET 0.026358 -0.055791 0.119288
					CHANNELS 3 Zrotation Yrotation Xrotation
					End Site
					{
						OFFSET 0.000000 0.000000 0.000000
					}
				}
			}
		}
	}
	JOINT RightUpLeg
	{
		OFFSET -0.067670 -0.090522 -0.004320
		CHANNELS 3 Zrotation Yrotation Xrotation
		JOINT RightLeg
		{
			OFFSET -0.038290 -0.382569 -0.008850
			CHANNELS 3 Zrotation Yrotation Xrotation
			JOINT RightFoot
			{
				OFFSET 0.015774 -0.398415 -0.042312
				CHANNELS 3 Zrotation Yrotation Xrotation
				JOINT RightToe
				{
					OFFSET -0.025372 -0.048144 0.123348
					CHANNELS 3 Zrotation Yrotation Xrotation
					End Site
					{
						OFFSET 0.000000 0.000000 0.000000
					}
				}
			}
		}
	}
	JOINT Spine
	{
		OFFSET -0.002533 0.108963 -0.026696
		CHANNELS 3 Zrotation Yrotation Xrotation
		JOINT Spine1
		{
			OFFSET 0.005487 0.135180 0.001092
			CHANNELS 3 Zrotation Yrotation Xrotation
			JOINT Spine2
			{
				OFFSET 0.001457 0.052922 0.025425
				CHANNELS 3 Zrotation Yrotation Xrotation
				JOINT Neck
				{
					OFFSET -0.002778 0.213870 -0.042857
					CHANNELS 3 Zrotation Yrotation Xrotation
					JOINT Head
					{
						OFFSET 0.005152 0.064970 0.051349
						CHANNELS 3 Zrotation Yrotation Xrotation
						End Site
						{
							OFFSET 0.000000 0.000000 0.000000
						}
					}
				}
				JOINT LeftShoulder
				{
					OFFSET 0.078845 0.121749 -0.034090
					CHANNELS 3 Zrotation Yrotation Xrotation
					JOINT LeftArm
					{
						OFFSET 0.090977 0.030469 -0.008868
						CHANNELS 3 Zrotation Yrotation Xrotation
						JOINT LeftForeArm
						{
							OFFSET 0.259612 -0.012772 -0.027456
							CHANNELS 3 Zrotation Yrotation Xrotation
							JOINT LeftHand
							{
								OFFSET 0.249234 0.008986 -0.001171
								CHANNELS 3 Zrotation Yrotation Xrotation
								End Site
								{
									OFFSET 0.000000 0.000000 0.000000
								}
							}
						}
					}
				}
				JOINT RightShoulder
				{
					OFFSET -0.081759 0.118833 -0.038615
					CHANNELS 3 Zrotation Yrotation Xrotation
					JOINT RightArm
					{
						OFFSET -0.096012 0.032551 -0.009143
						CHANNELS 3 Zrotation Yrotation Xrotation
						JOINT RightForeArm
						{
							OFFSET -0.253742 -0.013329 -0.021401
							CHANNELS 3 Zrotation Yrotation Xrotation
							JOINT RightHand
							{
								OFFSET -0.255298 0.007772 -0.005559
								CHANNELS 3 Zrotation Yrotation Xrotation
								End Site
								{
									OFFSET 0.000000 0.000000 0.000000
								}
							}
						}
					}
				}
			}
		}
	}
}
MOTION
Frames: 5
Frame Time: 0.050000
-0.145107 0.928747 -0.041013 -0.505876 -36.961118 10.735314 2.541092 -0.213968 -4.810899 -1.673982 0.473801 -7.241146 -4.634914 -8.764390 3.020151 0.000000 0.000000 0.000000 -1.470068 1.171748 -11.251586 -0.070036 -0.024590 -5.304208 10.992667 22.510676 4.750500 0.000000 0.000000 0.000000 5.127861 -0.017819 -1.397465 1.592173 -0.187936 2.833373 -11.150882 0.336484 5.050843 1.000644 -1.177947 -15.449887 0.000000 0.000000 0.000000 -21.797454 -16.323876 13.010601 -41.711894 -34.543846 5.552607 16.280115 -48.709903 -3.026163 0.000000 0.000000 0.000000 20.649876 -4.551591 -9.291026 53.749425 -6.208856 -7.007285 26.047495 47.184109 9.029179 0.000000 0.000000 0.000000 
-0.144620 0.928389 -0.040818 -0.762366 -36.976357 10.953649 2.545193 -0.213979 -4.804696 -1.372013 0.430424 -7.106275 -4.775841 -9.091153 2.639975 0.000000 0.000000 0.000000 -1.358971 1.181725 -11.343901 0.111650 -0.021115 -5.182462 11.027173 22.237011 4.971350 0.000000 0.000000 0.000000 5.313719 -0.012030 -1.468314 1.506267 -0.132271 2.958903 -10.825541 0.326918 5.144076 1.205199 -1.299486 -15.695163 0.000000 0.000000 0.000000 -21.560051 -16.432376 13.015292 -41.879088 -34.598561 5.646749 17.065942 -49.546612 -3.402345 0.000000 0.000000 0.000000 20.389896 -4.313824 -9.081288 54.056367 -5.990657 -7.002848 27.228638 47.835047 9.636588 0.000000 0.000000 0.000000 
-0.144083 0.928027 -0.040771 -0.847943 -36.891866 11.156096 2.392913 -0.233791 -4.877535 -1.105898 0.396396 -7.078225 -4.923136 -9.375397 2.615868 0.000000 0.000000 0.000000 -1.425705 1.203009 -11.487561 0.330674 -0.016889 -5.134418 11.033403 22.271507 4.973319 0.000000 0.000000 0.000000 5.357517 -0.015666 -1.456406 1.620163 -0.180261 2.985969 -10.680152 0.420039 5.102247 1.259527 -1.313154 -15.876608 0.000000 0.000000 0.000000 -21.411392 -16.528692 12.992239 -42.115146 -34.237869 5.584849 16.564541 -51.256873 -3.253832 0.000000 0.000000 0.000000 20.364707 -4.387109 -9.073654 54.102000 -5.777316 -6.921673 28.243409 48.113958 10.142086 0.000000 0.000000 0.000000 
-0.143446 0.927943 -0.040872 -0.853476 -36.688381 11.211399 2.335170 -0.250067 -5.060214 -0.863243 0.358480 -6.914209 -5.039435 -9.591157 2.635679 0.000000 0.000000 0.000000 -1.696617 1.243252 -11.744594 0.816308 -0.009296 -4.906757 10.917313 21.369850 5.336332 0.000000 0.000000 0.000000 5.395594 -0.029794 -1.337407 1.637405 -0.167265 3.211311 -10.557236 0.571740 4.862616 1.220717 -1.244229 -16.029446 0.000000 0.000000 0.000000 -21.436719 -16.623126 12.931336 -42.137923 -34.280282 5.650094 15.707111 -52.651723 -2.951794 0.000000 0.000000 0.000000 20.345024 -3.996012 -8.765784 53.965095 -5.477838 -6.748493 28.517850 48.483849 10.429138 0.000000 0.000000 0.000000 
-0.142446 0.927807 -0.041352 -0.622398 -36.394241 11.146662 2.167964 -0.277511 -5.235018 -0.963060 0.370338 -6.918739 -5.040389 -9.565566 2.836191 0.000000 0.000000 0.000000 -1.963699 1.268006 -11.895549 0.868988 -0.011813 -4.813363 10.535573 20.828283 5.040549 0.000000 0.000000 0.000000 5.248166 -0.058391 -1.076519 1.720895 -0.212647 3.238204 -10.615330 0.652836 4.779313 1.254091 -1.233346 -16.023717 0.000000 0.000000 0.000000 -21.421254 -16.941652 13.025550 -41.488088 -34.503732 5.611477 15.119913 -53.860065 -2.775709 0.000000 0.000000 0.000000 20.384512 -3.799382 -8.597913 53.876642 -5.580007 -6.777228 29.091065 48.874868 10.844496 0.000000 0.000000 0.000000 
